<svg width="25" height="25" viewBox="0 0 25 25" fill="none" xmlns="http://www.w3.org/2000/svg">
<path d="M17.4878 3.5H5.48779C4.37779 3.5 3.48779 4.4 3.48779 5.5V19.5C3.48779 20.6 4.37779 21.5 5.48779 21.5H19.4878C20.5878 21.5 21.4878 20.6 21.4878 19.5V7.5L17.4878 3.5ZM19.4878 19.5H5.48779V5.5H16.6578L19.4878 8.33V19.5ZM12.4878 12.5C10.8278 12.5 9.48779 13.84 9.48779 15.5C9.48779 17.16 10.8278 18.5 12.4878 18.5C14.1478 18.5 15.4878 17.16 15.4878 15.5C15.4878 13.84 14.1478 12.5 12.4878 12.5ZM6.48779 6.5H15.4878V10.5H6.48779V6.5Z" fill="black"/>
</svg>
